<svg width="501" height="422" viewBox="0 0 501 422" fill="none" xmlns="http://www.w3.org/2000/svg">
<g id="Group 4">
<g id="jacket">
<rect id="Rectangle 4" x="185" y="166" width="129" height="205" fill="black"/>
<ellipse id="Ellipse 3" cx="249" cy="182" rx="37" ry="27" fill="#60636B"/>
<g id="left jacket">
<path id="Vector 5" d="M203.017 158.02C243.017 153.62 240.683 164.52 234.517 170.52L208.517 176.02C202.017 177.186 192.917 184.92 208.517 206.52C223.001 226.575 224.004 265.999 222.497 287.01C222.5 288.573 222.375 290.079 222.109 291.52C222.25 290.137 222.381 288.628 222.497 287.01C222.476 278.452 218.581 268.192 212.698 257.52C220.442 251.92 214.971 237.186 208.517 222.52C202.063 207.853 179.517 187.02 194.017 176.02C208.517 165.02 202.986 159.52 203.017 158.02Z" fill="#7E5EA7"/>
<path id="Vector 3" d="M101.875 324.837C93.5769 350.403 146.965 381.177 148.923 388C157.596 330.488 219.646 335.538 223.674 305.125C225.121 294.205 221.615 280.117 215.776 265.354C205.352 239.001 187.493 210.494 177.093 194C118.392 194 104.533 316.649 101.875 324.837Z" fill="#A57AD9"/>
<path id="Vector 4" d="M204.52 158C164.52 162.4 163.581 185.5 168.112 196.5C180.504 210.601 201.782 234.971 214.201 257.5C221.946 251.9 216.474 237.167 210.02 222.5C203.566 207.833 181.02 187 195.52 176C210.02 165 204.489 159.5 204.52 158Z" fill="#B690CE"/>
</g>
<g id="right jacket">
<path id="Vector 5_2" d="M297.983 158.02C257.983 153.62 260.317 164.52 266.483 170.52L292.483 176.02C298.983 177.186 308.083 184.92 292.483 206.52C277.999 226.575 276.996 265.999 278.503 287.01C278.5 288.573 278.625 290.079 278.891 291.52C278.75 290.137 278.619 288.628 278.503 287.01C278.524 278.452 282.419 268.192 288.302 257.52C280.558 251.92 286.029 237.186 292.483 222.52C298.937 207.853 321.483 187.02 306.983 176.02C292.483 165.02 298.014 159.52 297.983 158.02Z" fill="#7E5EA7"/>
<path id="Vector 3_2" d="M399.125 324.837C407.423 350.403 354.035 381.177 352.077 388C343.404 330.488 281.354 335.538 277.326 305.125C275.879 294.205 279.385 280.117 285.224 265.354C295.648 239.001 313.507 210.494 323.907 194C382.608 194 396.467 316.649 399.125 324.837Z" fill="#A57AD9"/>
<path id="Vector 4_2" d="M296.48 158C336.48 162.4 337.419 185.5 332.888 196.5C320.496 210.601 299.218 234.971 286.799 257.5C279.054 251.9 284.526 237.167 290.98 222.5C297.434 207.833 319.98 187 305.48 176C290.98 165 296.511 159.5 296.48 158Z" fill="#B690CE"/>
</g>
</g>
<path id="neck" d="M280.5 155C261.7 172.2 232.333 162.167 221 155C221.5 165.333 222.3 186.4 227.5 188C234.167 195.167 252.6 205.2 273 188C277.8 176.4 280.667 161.167 280.5 155Z" fill="#E2A59F" stroke="#E2A59F"/>
<g id="head">
<path id="hair-1" d="M249.377 165.848C294.872 165.848 331.754 128.721 331.754 82.9238C331.754 37.1263 294.872 0 249.377 0C203.881 0 167 37.1263 167 82.9238C167 128.721 203.881 165.848 249.377 165.848Z" fill="#2F2E41"/>
<path id="hair-2" d="M187.971 39.5516C202.165 23.4823 222.006 13.593 243.306 11.9707C264.607 10.3485 285.7 17.1203 302.135 30.857C301.461 30.2124 300.794 29.5626 300.094 28.9362C283.765 14.3301 262.341 6.85091 240.535 8.14353C218.728 9.43615 198.324 19.3947 183.811 35.8291C169.297 52.2634 161.862 73.8277 163.141 95.7795C164.421 117.731 174.309 138.273 190.631 152.886C191.331 153.513 192.05 154.103 192.765 154.701C177.288 139.88 171.395 117.264 170.5 95.7795C169.605 74.2952 173.78 55.6241 187.971 39.5516Z" fill="#2F2E41"/>
<path id="face" d="M317 106C317 143.555 287.451 174 251 174C214.549 174 185 143.555 185 106C185 68.4446 214.549 38 251 38C287.451 38 317 68.4446 317 106Z" fill="#F8C6AD"/>
<path id="bangs" d="M187 29V77H203.801L225.182 61.8421L222.319 77H296.582L292 61.8421L301.164 77H313V29H187Z" fill="#2F2E41"/>
<path id="glasses" d="M211.639 92.0827C219.095 92.2996 226.476 93.0902 233.772 94.4796C238.952 95.466 244.142 96.3788 249.469 96.4245C254.454 96.4672 259.37 95.8776 264.266 95.1205C270.013 94.2318 275.724 93.1584 281.509 92.4621C286.67 91.841 291.812 91.8475 296.987 92.4725C302.148 93.0959 307.227 94.0052 312.25 95.2056C313.226 95.4388 314.257 95.4845 315.247 95.678C316.638 95.9497 317.134 96.5332 316.97 97.7821C316.826 98.8725 316.86 99.9473 316.973 101.034C317.069 101.954 316.859 102.715 315.755 103.204C314.535 103.744 313.807 104.765 313.208 105.828C312.049 107.882 311.497 110.115 310.801 112.305C310.162 114.314 309.594 116.343 308.786 118.308C306.544 123.755 302.248 127.437 296.115 129.282C287.979 131.731 279.872 131.417 271.99 128.325C266.043 125.992 262.196 121.843 259.558 116.705C258.442 114.531 257.631 112.26 256.733 110.016C256.281 108.888 255.746 107.8 254.929 106.834C254.194 105.964 253.266 105.451 251.991 105.438C250.788 105.425 249.588 105.289 248.381 105.452C247.402 105.585 246.67 105.998 246.156 106.746C245.387 107.865 244.873 109.083 244.526 110.34C243.259 114.931 240.816 118.98 237.548 122.691C233.804 126.942 228.974 129.593 222.98 130.477C216.441 131.442 209.98 131.103 203.668 129.201C202.504 128.85 201.393 128.386 200.292 127.901C197.381 126.619 195.318 124.663 194.001 122.019C191.855 117.71 189.902 113.346 188.627 108.766C188.138 107.013 187.211 105.516 185.69 104.282C184.501 103.318 183.418 102.25 183.131 100.758C182.935 99.7413 183.006 98.7124 183.048 97.6902C183.067 97.2304 183.103 96.7699 183.061 96.3135C183.02 95.8679 183.207 95.6734 183.707 95.6115C187.712 95.1163 191.635 94.2473 195.599 93.5656C199.591 92.8789 203.603 92.3008 207.668 92.0933C208.987 92.026 210.315 92.0827 211.639 92.0827H211.639ZM284.326 94.5725C279.601 94.6256 275.461 94.9118 271.398 95.8024C268.432 96.4525 265.516 97.2185 262.914 98.6996C260.711 99.9536 259.137 101.611 258.776 103.984C258.562 105.386 258.696 106.791 259.095 108.155C260.398 112.61 262.505 116.757 265.602 120.453C268.504 123.915 272.354 126.285 277.088 127.41C282.945 128.802 288.824 128.758 294.671 127.346C299.836 126.098 303.391 123.242 305.32 118.811C305.889 117.503 306.346 116.165 306.766 114.815C307.918 111.112 308.741 107.369 308.536 103.5C308.414 101.212 307.269 99.4257 305.142 98.129C303.824 97.3252 302.365 96.7853 300.827 96.4285C295.237 95.1316 289.522 94.7222 284.326 94.5725V94.5725ZM218.908 94.579C214.169 94.734 211.007 94.8994 207.854 95.1906C204.843 95.4687 201.851 95.8238 198.974 96.7187C194.289 98.176 192.393 100.525 192.443 104.907C192.502 109.975 193.915 114.793 196.076 119.445C198.022 123.637 201.598 126.243 206.51 127.428C210.9 128.487 215.365 128.708 219.867 128.179C225.23 127.548 229.925 125.669 233.761 122.223C235.595 120.576 236.913 118.632 238.073 116.586C239.833 113.481 241.544 110.349 242.174 106.882C242.797 103.444 241.543 100.663 238.171 98.7271C237.296 98.225 236.385 97.7844 235.421 97.4344C229.625 95.3297 223.573 94.5101 218.908 94.579V94.579Z" fill="black"/>
<g id="eyes">
<ellipse id="Ellipse 1" cx="220.402" cy="114.905" rx="5.5" ry="9" transform="rotate(0.201496 220.402 114.905)" fill="black"/>
<ellipse id="Ellipse 2" cx="282.401" cy="115.123" rx="5.5" ry="9" transform="rotate(0.201496 282.401 115.123)" fill="black"/>
</g>
</g>
<g id="laptop">
<g id="Group 3">
<g id="Group 2">
<g id="Group 1">
<path id="laptop_2" d="M107.406 236.402C106.561 229.825 111.685 224 118.317 224H254.582H382.551C389.238 224 394.378 229.916 393.444 236.537L380.743 326.54L373.334 387.088C372.658 392.605 367.973 396.752 362.415 396.752H137.652C132.117 396.752 127.443 392.638 126.741 387.147L118.473 322.499L107.406 236.402Z" fill="#2E3640"/>
<rect id="Rectangle 1" x="111.238" y="388.017" width="278.548" height="16.4988" rx="8.2494" fill="#2E3640"/>
</g>
<path id="Vector 1" d="M384.36 235.646C319.607 359.484 187.658 361.328 129.778 346.77C126.914 317.331 116.665 246.063 116.665 235.646H384.36Z" fill="#3C4050" stroke="#3C4050"/>
</g>
<g id="Vector" filter="url(#filter0_b)">
<path d="M239.39 310.376L236.149 323.902C232.723 332.256 238.163 341.115 250.06 340.424C261.957 341.115 267.397 332.256 263.972 323.902L260.73 310.376L254.247 319.598H245.873L239.39 310.376Z" fill="#FAFAFA"/>
<path d="M253.977 339.888C239.39 342.962 232.367 333.125 236.149 323.902L239.39 310.376L245.873 319.598H254.247L260.73 310.376L263.972 323.902C267.753 333.125 260.73 342.962 246.143 339.888" stroke="#FAFAFA"/>
</g>
</g>
<path id="Rectangle 2" d="M0.050378 407.843C0.0782014 401.718 5.06638 396.777 11.1918 396.808L489.909 399.222C496.034 399.253 500.977 404.244 500.95 410.369V410.369C500.922 416.495 495.934 421.436 489.808 421.405L11.0911 418.99C4.96565 418.959 0.0225547 413.969 0.050378 407.843V407.843Z" fill="#C09070"/>
</g>
</g>
<defs>
<filter id="filter0_b" x="233.138" y="307.682" width="33.8442" height="34.7798" filterUnits="userSpaceOnUse" color-interpolation-filters="sRGB">
<feFlood flood-opacity="0" result="BackgroundImageFix"/>
<feGaussianBlur in="BackgroundImage" stdDeviation="0.75"/>
<feComposite in2="SourceAlpha" operator="in" result="effect1_backgroundBlur"/>
<feBlend mode="normal" in="SourceGraphic" in2="effect1_backgroundBlur" result="shape"/>
</filter>
</defs>
</svg>
