<svg width="760" height="465" viewBox="0 0 760 465" fill="none" xmlns="http://www.w3.org/2000/svg">
<g id="profile">
<path id="blob" d="M598.247 12.1196C666.667 31.6251 720.232 93.3262 744.989 162.591C769.746 231.855 766.145 309.081 717.081 351.675C668.017 394.666 573.941 403.424 507.772 418.551C441.603 433.677 403.343 455.571 359.68 461.94C316.468 468.309 267.854 459.154 197.635 444.823C127.415 430.891 36.0391 411.783 9.03154 367.597C-17.5259 323.411 20.2847 253.351 47.7424 181.698C75.6503 109.647 92.7551 35.6058 143.619 10.9254C194.934 -13.755 280.008 10.9254 363.731 12.1196C447.905 13.7119 530.278 -7.784 598.247 12.1196Z" fill="#D6D6D6"/>
<path id="Vector" d="M520.318 162.716C519.607 159.74 517.783 157.8 516.022 155.925C514.707 154.526 513.465 153.205 512.73 151.516L512.598 151.214C512.162 150.221 511.671 149.097 511.721 148.24C511.774 147.374 511.181 146.638 510.399 146.54C509.602 146.45 508.86 147.04 508.698 147.896L503.2 176.886C502.101 175.821 500.652 175.021 498.959 174.7C494.83 173.916 490.915 176.197 490.234 179.786C489.553 183.375 492.362 186.931 496.491 187.714C500.619 188.497 504.535 186.216 505.215 182.627L510.595 154.259C511.513 155.835 512.691 157.09 513.84 158.312C515.387 159.957 516.849 161.512 517.356 163.634C517.676 164.959 517.688 166.34 517.397 167.511C516.683 170.379 515.123 173.103 513.329 174.627C512.653 175.197 512.517 176.236 513.028 176.946C513.532 177.662 514.492 177.77 515.169 177.201C517.483 175.243 519.469 171.824 520.349 168.28C520.783 166.532 520.772 164.609 520.318 162.716Z" fill="black"/>
<g id="jacket">
<rect id="Rectangle 4" x="314" y="209" width="129" height="205" fill="black"/>
<ellipse id="Ellipse 3" cx="378" cy="225" rx="37" ry="27" fill="#60636B"/>
<g id="left jacket">
<path id="Vector 5" d="M332.017 201.02C372.017 196.62 369.683 207.52 363.517 213.52L337.517 219.02C331.017 220.186 321.917 227.92 337.517 249.52C352.001 269.575 353.004 308.999 351.497 330.01C351.5 331.573 351.375 333.079 351.109 334.52C351.25 333.137 351.381 331.628 351.497 330.01C351.476 321.452 347.581 311.192 341.698 300.52C349.442 294.92 343.971 280.186 337.517 265.52C331.063 250.853 308.517 230.02 323.017 219.02C337.517 208.02 331.986 202.52 332.017 201.02Z" fill="#7E5EA7"/>
<path id="left shoulder" d="M230.875 367.837C222.577 393.403 275.965 424.177 277.923 431C286.596 373.488 348.646 378.538 352.674 348.125C354.121 337.205 350.615 323.117 344.776 308.354C334.352 282.001 316.493 253.494 306.093 237C247.392 237 233.533 359.649 230.875 367.837Z" fill="#A57AD9"/>
<path id="Vector 4" d="M333.52 201C293.52 205.4 292.581 228.5 297.112 239.5C309.504 253.601 330.782 277.971 343.201 300.5C350.946 294.9 345.474 280.167 339.02 265.5C332.566 250.833 310.02 230 324.52 219C339.02 208 333.489 202.5 333.52 201Z" fill="#B690CE"/>
</g>
<g id="right jacket">
<path id="Vector 5_2" d="M426.983 201.02C386.983 196.62 389.317 207.52 395.483 213.52L421.483 219.02C427.983 220.186 437.083 227.92 421.483 249.52C406.999 269.575 405.996 308.999 407.503 330.01C407.5 331.573 407.625 333.079 407.891 334.52C407.75 333.137 407.619 331.628 407.503 330.01C407.524 321.452 411.419 311.192 417.302 300.52C409.558 294.92 415.029 280.186 421.483 265.52C427.937 250.853 450.483 230.02 435.983 219.02C421.483 208.02 427.014 202.52 426.983 201.02Z" fill="#7E5EA7"/>
<path id="right shoulder" d="M528.125 367.837C536.423 393.403 483.035 424.177 481.077 431C472.404 373.488 410.354 378.538 406.326 348.125C404.879 337.205 408.385 323.117 414.224 308.354C424.648 282.001 442.507 253.494 452.907 237C511.608 237 525.467 359.649 528.125 367.837Z" fill="#A57AD9"/>
<path id="Vector 4_2" d="M425.48 201C465.48 205.4 466.419 228.5 461.888 239.5C449.496 253.601 428.218 277.971 415.799 300.5C408.054 294.9 413.526 280.167 419.98 265.5C426.434 250.833 448.98 230 434.48 219C419.98 208 425.511 202.5 425.48 201Z" fill="#B690CE"/>
</g>
</g>
<path id="neck" d="M409.5 198C390.7 215.2 361.333 205.167 350 198C350.5 208.333 351.3 229.4 356.5 231C363.167 238.167 381.6 248.2 402 231C406.8 219.4 409.667 204.167 409.5 198Z" fill="#E2A59F" stroke="#E2A59F"/>
<g id="head">
<g id="headphones">
<path id="Ellipse 6" d="M467 124C431.84 157 426.929 212 377.5 212C328.071 212 327.84 152.5 288 124C288 75.3989 328.071 36 377.5 36C426.929 36 467 75.3989 467 124Z" fill="#494545"/>
<ellipse id="Ellipse 4" cx="302" cy="140" rx="22" ry="27" fill="#494545"/>
<ellipse id="Ellipse 5" cx="449" cy="140" rx="22" ry="27" fill="#494545"/>
</g>
<path id="hair-1" d="M378.377 208.848C423.872 208.848 460.754 171.721 460.754 125.924C460.754 80.1263 423.872 43 378.377 43C332.881 43 296 80.1263 296 125.924C296 171.721 332.881 208.848 378.377 208.848Z" fill="black"/>
<path id="hair-2" d="M316.971 82.5516C331.165 66.4823 351.006 56.593 372.306 54.9707C393.607 53.3485 414.7 60.1203 431.135 73.857C430.461 73.2124 429.794 72.5626 429.094 71.9362C412.765 57.3301 391.341 49.8509 369.535 51.1435C347.728 52.4361 327.324 62.3947 312.811 78.8291C298.297 95.2634 290.862 116.828 292.141 138.779C293.421 160.731 303.309 181.273 319.631 195.886C320.331 196.513 321.05 197.103 321.765 197.701C306.288 182.88 300.395 160.264 299.5 138.779C298.605 117.295 302.78 98.6241 316.971 82.5516Z" fill="black"/>
<path id="face" d="M446 149C446 186.555 416.451 217 380 217C343.549 217 314 186.555 314 149C314 111.445 343.549 81 380 81C416.451 81 446 111.445 446 149Z" fill="#F8C6AD"/>
<path id="bangs" d="M316 72V120H332.801L354.182 104.842L351.319 120H425.582L421 104.842L430.164 120H442V72H316Z" fill="black"/>
<path id="glasses" d="M340.639 135.083C348.095 135.3 355.476 136.09 362.772 137.48C367.952 138.466 373.142 139.379 378.469 139.424C383.454 139.467 388.37 138.878 393.266 138.121C399.013 137.232 404.724 136.158 410.509 135.462C415.67 134.841 420.812 134.848 425.987 135.472C431.148 136.096 436.227 137.005 441.25 138.206C442.226 138.439 443.257 138.484 444.247 138.678C445.638 138.95 446.134 139.533 445.97 140.782C445.826 141.872 445.86 142.947 445.973 144.034C446.069 144.954 445.859 145.715 444.755 146.204C443.535 146.744 442.807 147.765 442.208 148.828C441.049 150.882 440.497 153.115 439.801 155.305C439.162 157.314 438.594 159.343 437.786 161.308C435.544 166.755 431.248 170.437 425.115 172.282C416.979 174.731 408.872 174.417 400.99 171.325C395.043 168.992 391.196 164.843 388.558 159.705C387.442 157.531 386.631 155.26 385.733 153.016C385.281 151.888 384.746 150.8 383.929 149.834C383.194 148.964 382.266 148.451 380.991 148.438C379.788 148.425 378.588 148.289 377.381 148.452C376.402 148.585 375.67 148.998 375.156 149.746C374.387 150.865 373.873 152.083 373.526 153.34C372.259 157.931 369.816 161.98 366.548 165.691C362.804 169.942 357.974 172.593 351.98 173.477C345.441 174.442 338.98 174.103 332.668 172.201C331.504 171.85 330.393 171.386 329.292 170.901C326.381 169.619 324.318 167.663 323.001 165.019C320.855 160.71 318.902 156.346 317.627 151.766C317.138 150.013 316.211 148.516 314.69 147.282C313.501 146.318 312.418 145.25 312.131 143.758C311.935 142.741 312.006 141.712 312.048 140.69C312.067 140.23 312.103 139.77 312.061 139.313C312.02 138.868 312.207 138.673 312.707 138.612C316.712 138.116 320.635 137.247 324.599 136.566C328.591 135.879 332.603 135.301 336.668 135.093C337.987 135.026 339.315 135.083 340.639 135.083H340.639ZM413.326 137.573C408.601 137.626 404.461 137.912 400.398 138.802C397.432 139.452 394.516 140.219 391.914 141.7C389.711 142.954 388.137 144.611 387.776 146.984C387.562 148.386 387.696 149.791 388.095 151.155C389.398 155.61 391.505 159.757 394.602 163.453C397.504 166.915 401.354 169.285 406.088 170.41C411.945 171.802 417.824 171.758 423.671 170.346C428.836 169.098 432.391 166.242 434.32 161.811C434.889 160.503 435.346 159.165 435.766 157.815C436.918 154.112 437.741 150.369 437.536 146.5C437.414 144.212 436.269 142.426 434.142 141.129C432.824 140.325 431.365 139.785 429.827 139.429C424.237 138.132 418.522 137.722 413.326 137.573V137.573ZM347.908 137.579C343.169 137.734 340.007 137.899 336.854 138.191C333.843 138.469 330.851 138.824 327.974 139.719C323.289 141.176 321.393 143.525 321.443 147.907C321.502 152.975 322.915 157.793 325.076 162.445C327.022 166.637 330.598 169.243 335.51 170.428C339.9 171.487 344.365 171.708 348.867 171.179C354.23 170.548 358.925 168.669 362.761 165.223C364.595 163.576 365.913 161.632 367.073 159.586C368.833 156.481 370.544 153.349 371.174 149.882C371.797 146.444 370.543 143.663 367.171 141.727C366.296 141.225 365.385 140.784 364.421 140.434C358.625 138.33 352.573 137.51 347.908 137.579V137.579Z" fill="black"/>
<g id="eyes">
<ellipse id="Ellipse 1" cx="349.402" cy="157.905" rx="5.5" ry="9" transform="rotate(0.201496 349.402 157.905)" fill="black"/>
<ellipse id="Ellipse 2" cx="411.401" cy="158.123" rx="5.5" ry="9" transform="rotate(0.201496 411.401 158.123)" fill="black"/>
</g>
</g>
<g id="laptop">
<g id="Group 3">
<g id="Group 2">
<g id="Group 1">
<path id="laptop_2" d="M236.406 279.402C235.561 272.825 240.685 267 247.317 267H383.582H511.551C518.238 267 523.378 272.916 522.444 279.537L509.743 369.54L502.334 430.088C501.658 435.605 496.973 439.752 491.415 439.752H266.652C261.117 439.752 256.443 435.638 255.741 430.147L247.473 365.499L236.406 279.402Z" fill="#2E3640"/>
<rect id="Rectangle 1" x="240.238" y="431.017" width="278.548" height="16.4988" rx="8.2494" fill="#2E3640"/>
</g>
<path id="Vector 1" d="M513.36 278.646C448.607 402.484 316.658 404.328 258.778 389.77C255.914 360.331 245.665 289.063 245.665 278.646H513.36Z" fill="#3C4050" stroke="#3C4050"/>
</g>
<g id="Vector_2" filter="url(#filter0_b)">
<path d="M368.39 353.376L365.149 366.902C361.723 375.256 367.163 384.115 379.06 383.424C390.957 384.115 396.397 375.256 392.972 366.902L389.73 353.376L383.247 362.598H374.873L368.39 353.376Z" fill="#FAFAFA"/>
<path d="M382.977 382.888C368.39 385.962 361.367 376.125 365.149 366.902L368.39 353.376L374.873 362.598H383.247L389.73 353.376L392.972 366.902C396.753 376.125 389.73 385.962 375.143 382.888" stroke="#FAFAFA"/>
</g>
</g>
<path id="Rectangle 2" d="M129.05 450.843C129.078 444.718 134.066 439.777 140.192 439.808L618.909 442.222C625.034 442.253 629.977 447.244 629.95 453.369V453.369C629.922 459.495 624.934 464.436 618.808 464.405L140.091 461.99C133.966 461.959 129.023 456.969 129.05 450.843V450.843Z" fill="#C09070"/>
</g>
</g>
<defs>
<filter id="filter0_b" x="362.138" y="350.682" width="33.8442" height="34.7798" filterUnits="userSpaceOnUse" color-interpolation-filters="sRGB">
<feFlood flood-opacity="0" result="BackgroundImageFix"/>
<feGaussianBlur in="BackgroundImage" stdDeviation="0.75"/>
<feComposite in2="SourceAlpha" operator="in" result="effect1_backgroundBlur"/>
<feBlend mode="normal" in="SourceGraphic" in2="effect1_backgroundBlur" result="shape"/>
</filter>
</defs>
</svg>
